<?xml version="1.0" standalone="no"?>
<!DOCTYPE svg PUBLIC "-//W3C//DTD SVG 20010904//EN"
 "http://www.w3.org/TR/2001/REC-SVG-20010904/DTD/svg10.dtd">
<svg version="1.0" xmlns="http://www.w3.org/2000/svg"
 width="983.000000pt" height="983.000000pt" viewBox="0 0 983.000000 983.000000"
 preserveAspectRatio="xMidYMid meet">
<metadata>
Created by potrace 1.14, written by Peter Selinger 2001-2017
</metadata>
<g transform="translate(0.000000,983.000000) scale(0.100000,-0.100000)"
fill="#000000" stroke="none">
<path d="M2594 9811 c-86 -31 -145 -71 -230 -155 -87 -88 -137 -173 -171 -296
-17 -62 -18 -242 -18 -4415 0 -4182 1 -4353 18 -4430 10 -44 36 -116 57 -160
70 -147 231 -290 377 -335 64 -20 93 -20 2284 -20 l2218 0 78 25 c103 32 191
86 268 162 77 76 125 153 159 255 l26 77 0 4398 c0 3914 -2 4405 -15 4457 -54
205 -244 393 -446 441 -56 13 -343 15 -2309 14 -2155 0 -2247 0 -2296 -18z
m2970 -412 c55 -25 55 -99 0 -119 -36 -14 -1259 -13 -1285 1 -25 13 -40 50
-32 78 13 50 13 50 675 51 438 0 624 -3 642 -11z m1761 -559 c3 -5 6 -1664 5
-3687 0 -2899 -3 -3679 -13 -3685 -16 -10 -4784 -10 -4791 0 -3 4 -6 1663 -7
3686 -1 3120 0 3680 12 3687 20 12 4786 12 4794 -1z m-2280 -7655 c178 -47
315 -191 354 -373 53 -252 -98 -494 -353 -567 -80 -23 -218 -16 -299 15 -129
49 -246 174 -287 306 -27 88 -27 209 0 295 75 243 337 388 585 324z"/>
<path d="M2672 7482 c-10 -10 -34 -59 -52 -108 -31 -85 -33 -97 -38 -265 -7
-275 19 -404 129 -619 65 -129 161 -254 239 -315 28 -22 56 -48 62 -58 6 -12
7 -59 3 -125 -12 -187 22 -336 122 -537 72 -145 133 -215 335 -387 101 -86
266 -227 368 -313 102 -87 242 -202 312 -257 152 -119 206 -177 253 -272 90
-183 85 -388 -19 -712 -19 -60 -51 -172 -71 -249 -20 -77 -54 -184 -76 -239
-30 -76 -37 -102 -28 -112 8 -10 38 -14 108 -14 80 0 104 4 146 24 61 29 81
51 175 189 41 59 77 107 81 107 4 0 10 -16 13 -35 9 -48 79 -184 115 -222 35
-38 67 -42 103 -13 40 31 89 114 117 199 l26 78 50 -90 c59 -107 132 -184 211
-223 46 -22 75 -29 144 -32 144 -7 158 16 91 153 -66 133 -195 561 -222 735
-17 114 -7 330 20 407 31 86 85 158 170 228 433 353 898 752 985 845 104 113
173 232 228 393 28 82 32 108 36 238 4 122 2 151 -12 177 -9 18 -14 37 -11 42
3 5 32 26 63 47 171 111 298 300 379 559 26 85 27 98 27 299 0 234 -11 311
-63 422 -25 52 -34 63 -55 63 -19 0 -33 -14 -65 -65 -23 -36 -46 -78 -52 -92
-35 -92 -238 -326 -394 -453 -73 -59 -593 -429 -894 -635 -191 -131 -299 -225
-368 -322 -25 -35 -47 -62 -49 -60 -3 2 -11 44 -20 93 -31 177 -109 356 -195
445 -179 184 -488 163 -711 -50 -90 -85 -80 -120 44 -156 31 -9 62 -22 68 -30
15 -18 27 -250 13 -258 -5 -3 -33 21 -62 53 -121 138 -293 271 -746 576 -170
115 -355 244 -410 285 -285 217 -444 398 -520 594 -27 69 -35 80 -58 83 -15 2
-33 -4 -45 -16z"/>
</g>
</svg>
